<?xml version="1.0" encoding="utf-8"?>
<!-- Generator: Adobe Illustrator 22.1.0, SVG Export Plug-In . SVG Version: 6.00 Build 0)  -->
<svg version="1.1" id="Layer_1" xmlns="http://www.w3.org/2000/svg" xmlns:xlink="http://www.w3.org/1999/xlink" x="0px" y="0px"
	 viewBox="0 0 7086.6 2834.6" style="enable-background:new 0 0 7086.6 2834.6;" xml:space="preserve">
<style type="text/css">
	.st0{fill-rule:evenodd;clip-rule:evenodd;fill:#455C67;}
	.st1{fill-rule:evenodd;clip-rule:evenodd;fill:#2874BB;}
</style>
<path class="st0" d="M688.3,620.9l-0.3,952.5c-13-6.7-27.3-19.2-36.3-27.9c-34.4-33.5-57.2-81.3-58.2-134.5
	c-0.8-42.5,0-85.8,0-128.3V639c-6.6,0.3-45.6,12.6-54.1,15.5c-36.6,12.3-65.6,24.4-100.1,41.1c-16.5,8-32.5,17.8-45.9,24.4
	c-0.8,122.3,0,245,0,367.3l0,275.2c0,30.2-0.6,59.1,3.2,88.8c24,187.1,185.2,343.9,391,343.8c206-0.1,366.3-156.6,390.8-343.4
	c5-38.3,3.3-135.8,3.3-179.7c0-30.7,0-61.3,0-92l-0.1-183.9c0-91.8,0.7-184.1,0.1-275.8c-4.6-3.6-16.3-9.5-22.2-12.6
	c-52.8-27.2-92.2-44.3-149.7-61.3c-7.6-2.3-20.7-6.6-28.2-7.5c0,171.4,0,342.7,0,514.1c0,85.3,1.1,171.4,0,256.7
	c-0.8,59.9-30.2,116.4-74.4,150.2c-3.7,2.8-15.3,11.9-19.6,13.2c-0.8-158.7,0-317.7,0-476.4V680.3c0-9,1-54.6-0.5-59.5
	C829.8,613.6,745.2,611.5,688.3,620.9z"/>
<path class="st1" d="M0,1401.1c0.1,126.2,30.1,250.3,85.6,357.6c29.1,56.3,63.1,107.7,103.6,154.5c14.1,16.4,21,23.6,35.2,38.3
	c6.2,6.4,12.2,11.6,18.5,18.6c5.9,6.5,30.2,27.3,39.2,35c82.3,69.6,183.3,123.4,289.2,153.5c40.1,11.4,79.6,19.1,123.2,24.6
	c27.8,3.5,55.7,5.4,83.6,5.8h19.8c114.8-1.5,228-28.9,330.8-77.6c59-28,129.2-73.8,177.8-117.4l28.8-26.8c3-2.9,6.8-6,9.2-9.1
	l-137.9-137.8c-3.4,2.3-9.9,9.2-13.3,12.7c-4,4.1-9.5,8.4-13.9,12.5c-23.8,22.1-61.8,49.1-90.4,65.7c-43.9,25.6-91.4,47-146.4,61.7
	c-121.6,32.4-247.2,25.5-360.1-16.2c-25.2-9.3-49.4-20-71.9-32.2c-34.4-18.7-79.8-47.6-108.1-73.7c-15.1-13.9-24.1-20.9-40.4-38.1
	l-24.9-27.2c-30.3-33.6-62.6-86.4-82.4-125.8c-17.8-35.6-31.5-75.1-41.6-114.6c-2.4-9.4-8.9-35-8.8-43.9l169,0
	c-1.6-13.7-5-26.1-7-45c-3.3-30.9-2.3-70.1-2.3-102c0-16.3,1.1-36.7-0.1-52.5l-159.6-0.2c3.3-36,27.5-107.1,41.8-138.9
	c18.8-41.9,42.2-82.3,66.5-113.8c6.7-8.7,12.7-17.1,19.8-25.1c3.4-3.9,6.8-7.9,10.2-11.9c24.8-29.7,21.5-12.9,21.5-46.1V738.7
	c-11.3,2.9-77.4,55.5-91.9,67.8c-6.1,5.2-11,10.3-16.8,15.2c-27.2,23.1-72.4,73.9-92.2,100.3c-18.1,24.1-35.1,48.2-52,76.4
	C45.9,1107.2-0.1,1245.9,0,1401.1L0,1401.1z M1575.5,1422.1c-1.7,4.2-2,33-2.6,40.5c-1,12.7-2.2,25.6-3.9,38.2l-367.2,0.1
	c0.7-6.7,2.9-15.3,4-22.3c4.1-25.8,5.3-46.8,5.3-73.3c0-18.5-1-92,0.2-104h159.7c-1-11.2-5-27.2-7.7-38.2
	c-21.3-87.5-64.1-174.2-121.1-240.4c-3.6-4.1-7-8.5-10.5-12.3c-3.8-4.1-7.1-7.5-10.6-11.5c-3.7-4.3-9.8-9.4-10.1-12.7
	c-0.6-6.3,0-16.2,0-22.9c0-23-0.9-216.2,0.2-225c5.6,2.8,13.4,8.4,18.7,12.1c44.4,30.8,66.1,49.1,104,84.3
	c22.1,20.5,57.7,60.2,74.4,82.5c9,12,17.7,23.5,26.7,36.1c42.3,59.6,80.1,135.8,103.5,210.2c20.9,66.6,29.3,116.4,34.9,184.8
	c0.4,4.9,0.6,9.8,0.9,14.7c0.2,3.3,0.1,12.5,1.2,15V1422.1z"/>
<rect x="1836.8" y="566.8" class="st0" width="23.7" height="1694.7"/>
<polygon class="st1" points="2156.7,1680.7 2156.7,1135.7 2506.7,1135.7 2506.7,1219.8 2255.8,1219.8 2255.8,1354.3 2479.2,1354.3 
	2479.2,1436.9 2255.8,1436.9 2255.8,1596.6 2525.6,1596.6 2525.6,1680.7 "/>
<path class="st1" d="M2847.2,1355.1c-7.9-2.6-18.7-5.4-32.6-8.3c-13.9-2.9-30-4.3-48.4-4.3c-10.5,0-21.6,1-33.4,3.1
	c-11.8,2.1-20.1,3.9-24.8,5.5v329.5h-95.2v-391.7c18.4-6.8,41.3-13.2,68.8-19.3c27.5-6,58.1-9,91.6-9c6.3,0,13.6,0.4,22,1.2
	c8.4,0.8,16.8,1.8,25.2,3.1c8.4,1.3,16.5,2.9,24.4,4.7c7.9,1.8,14.2,3.5,18.9,5.1L2847.2,1355.1z"/>
<path class="st1" d="M3267.2,1668.1c-18.4,4.7-42.2,9.6-71.6,14.6c-29.4,5-61.6,7.5-96.7,7.5c-33,0-60.7-4.7-83-14.2
	c-22.3-9.4-40.1-22.5-53.5-39.3c-13.4-16.8-22.9-36.8-28.7-60.2c-5.8-23.3-8.7-48.9-8.7-76.7v-230.4h95.2v215.5
	c0,44,6.4,75.5,19.3,94.4c12.8,18.9,35.3,28.3,67.2,28.3c11.5,0,23.7-0.5,36.6-1.6c12.8-1,22.4-2.4,28.7-3.9v-332.7h95.2V1668.1z"/>
<path class="st1" d="M3463.1,1473.9c0,41.9,10,74.9,29.9,98.7c19.9,23.9,47.5,35.8,82.6,35.8c15.2,0,28.2-0.7,38.9-2
	s19.5-2.8,26.3-4.3v-236c-8.4-5.8-19.5-11.1-33.4-16.1c-13.9-5-28.7-7.5-44.4-7.5c-34.6,0-59.9,11.8-75.9,35.4
	C3471.1,1401.5,3463.1,1433.5,3463.1,1473.9L3463.1,1473.9z M3736,1668.1c-18.9,5.8-42.6,11-71.2,15.7c-28.6,4.7-58.6,7.1-90.1,7.1
	c-32.5,0-61.6-5-87.3-14.9c-25.7-10-47.6-24.3-65.7-42.9c-18.1-18.6-32-41.2-41.7-67.6c-9.7-26.5-14.6-56.2-14.6-89.3
	c0-32.5,4.1-62,12.2-88.5c8.1-26.5,20.1-49.2,35.8-68c15.7-18.9,34.9-33.4,57.4-43.7c22.5-10.2,48.5-15.3,77.9-15.3
	c19.9,0,37.5,2.4,52.7,7.1c15.2,4.7,28.3,10,39.3,15.7v-197.4l95.2-15.7V1668.1z"/>
<path class="st1" d="M3953.1,1680.7h-95.2v-411.3h95.2V1680.7L3953.1,1680.7z M3963.3,1149.1c0,17.8-5.8,32-17.3,42.5
	c-11.5,10.5-25.2,15.7-40.9,15.7c-16.3,0-30.2-5.2-41.7-15.7c-11.5-10.5-17.3-24.6-17.3-42.5c0-18.4,5.8-32.8,17.3-43.3
	c11.5-10.5,25.4-15.7,41.7-15.7c15.7,0,29.4,5.2,40.9,15.7C3957.5,1116.3,3963.3,1130.7,3963.3,1149.1z"/>
<path class="st1" d="M4069.5,1160.9l95.2-15.7v124.3h146.3v79.4h-146.3v167.5c0,33,5.2,56.6,15.7,70.8
	c10.5,14.2,28.3,21.2,53.5,21.2c17.3,0,32.6-1.8,46-5.5c13.4-3.7,24-7.1,31.9-10.2l15.7,75.5c-11,4.7-25.4,9.6-43.3,14.6
	c-17.8,5-38.8,7.5-62.9,7.5c-29.4,0-53.9-3.9-73.5-11.8c-19.7-7.9-35.3-19.3-46.8-34.2c-11.5-14.9-19.7-33-24.4-54.3
	c-4.7-21.2-7.1-45.5-7.1-72.8V1160.9z"/>
<path class="st1" d="M4373.1,1477c0-36.2,5.4-67.9,16.1-95.2c10.7-27.3,25-49.9,42.9-68c17.8-18.1,38.3-31.7,61.4-40.9
	c23.1-9.2,46.7-13.8,70.8-13.8c56.6,0,100.8,17.6,132.5,52.7s47.6,87.6,47.6,157.3c0,5.2-0.1,11.1-0.4,17.7
	c-0.3,6.6-0.7,12.5-1.2,17.7h-271.3c2.6,33,14.3,58.6,35,76.7c20.7,18.1,50.7,27.1,90.1,27.1c23.1,0,44.2-2.1,63.3-6.3
	c19.1-4.2,34.2-8.7,45.2-13.4l12.6,77.9c-5.2,2.6-12.5,5.4-21.6,8.3c-9.2,2.9-19.7,5.5-31.5,7.9c-11.8,2.4-24.5,4.3-38.1,5.9
	c-13.6,1.6-27.5,2.4-41.7,2.4c-36.2,0-67.6-5.4-94.4-16.1c-26.7-10.7-48.8-25.7-66.1-44.8c-17.3-19.1-30.1-41.7-38.5-67.6
	C4377.3,1536.4,4373.1,1508,4373.1,1477L4373.1,1477z M4649.1,1434.6c0-13.1-1.8-25.6-5.5-37.4c-3.7-11.8-9-22-16.1-30.7
	c-7.1-8.7-15.7-15.5-26-20.5c-10.2-5-22.4-7.5-36.6-7.5c-14.7,0-27.5,2.8-38.5,8.3c-11,5.5-20.3,12.7-27.9,21.6
	c-7.6,8.9-13.5,19.1-17.7,30.7c-4.2,11.5-7.1,23.3-8.7,35.4H4649.1z"/>
<path class="st0" d="M5198.9,1197c8.4,28.3,17.3,57.8,26.7,88.5c9.4,30.7,19.3,61.3,29.5,92c10.2,30.7,20.5,60.8,30.7,90.4
	c10.2,29.6,20.1,57.5,29.5,83.8c7.9-28.3,15.5-59.1,22.8-92.4c7.3-33.3,14.7-67.9,22-103.8c7.3-35.9,14.5-72.5,21.6-109.7
	c7.1-37.2,13.8-73.9,20.1-110.1h102.2c-18.4,98.6-38.8,193.4-61.2,284.3c-22.5,91-47.7,177.9-75.4,260.7h-95.4
	c-40.6-105.9-80-221.5-118-346.9c-19.4,63.4-39.1,123.7-59.1,180.9c-19.9,57.2-39.8,112.5-59.8,166h-94.5
	c-28.3-82.8-53.5-169.8-75.8-260.7c-22.3-91-42.5-185.7-60.8-284.3h106.2c6.3,35.7,13,72.1,20.1,109.3c7.1,37.2,14.4,73.8,22,109.7
	c7.6,35.9,15.3,70.7,23.2,104.2c7.9,33.6,15.7,64.5,23.6,92.8c10-26.7,20.1-54.9,30.3-84.5c10.2-29.6,20.3-59.8,30.3-90.5
	c10-30.7,19.5-61.2,28.7-91.6c9.2-30.4,17.7-59.8,25.6-88.1H5198.9z"/>
<path class="st0" d="M5939.8,1474.7c0,32.5-4.7,62.1-14.2,88.9c-9.4,26.7-22.8,49.6-40.1,68.4c-17.3,18.9-38.1,33.6-62.5,44
	c-24.4,10.5-51.3,15.7-80.6,15.7c-29.4,0-56.1-5.2-80.2-15.7c-24.1-10.5-44.8-25.2-62.1-44c-17.3-18.9-30.8-41.7-40.5-68.4
	c-9.7-26.7-14.6-56.4-14.6-88.9c0-32.5,4.9-62,14.6-88.5c9.7-26.5,23.3-49.2,40.9-68c17.6-18.9,38.4-33.4,62.5-43.7
	c24.1-10.2,50.6-15.3,79.4-15.3c28.8,0,55.5,5.1,79.8,15.3c24.4,10.2,45.2,24.8,62.5,43.7c17.3,18.9,30.8,41.6,40.5,68
	C5934.9,1412.7,5939.8,1442.2,5939.8,1474.7L5939.8,1474.7z M5842.3,1474.7c0-40.9-8.8-73.3-26.3-97.1
	c-17.6-23.9-42.1-35.8-73.5-35.8c-31.5,0-56,11.9-73.5,35.8c-17.6,23.9-26.3,56.2-26.3,97.1c0,41.4,8.8,74.2,26.3,98.3
	c17.6,24.1,42.1,36.2,73.5,36.2c31.5,0,56-12.1,73.5-36.2C5833.5,1548.9,5842.3,1516.1,5842.3,1474.7z"/>
<path class="st0" d="M6272.5,1355.1c-7.9-2.6-18.7-5.4-32.6-8.3c-13.9-2.9-30-4.3-48.4-4.3c-10.5,0-21.6,1-33.4,3.1
	c-11.8,2.1-20.1,3.9-24.8,5.5v329.5h-95.2v-391.7c18.4-6.8,41.3-13.2,68.8-19.3c27.5-6,58.1-9,91.6-9c6.3,0,13.6,0.4,22,1.2
	c8.4,0.8,16.8,1.8,25.2,3.1c8.4,1.3,16.5,2.9,24.4,4.7c7.9,1.8,14.2,3.5,18.9,5.1L6272.5,1355.1z"/>
<path class="st0" d="M6450.2,1429.8c12.1-12.6,24.9-26.1,38.5-40.5c13.6-14.4,27-28.8,40.1-43.3c13.1-14.4,25.6-28.3,37.4-41.7
	c11.8-13.4,21.9-25,30.3-35H6709c-26.2,29.4-53.7,59.8-82.8,91.2c-29,31.5-58.1,62.1-87.4,92c15.7,13.1,32.1,29,49.4,47.6
	c17.3,18.6,34.1,38.4,50.2,59.4c16.3,21,31.5,41.9,45.6,62.9c14,21,25.8,40.4,35.3,58.2h-110.1c-9.4-16.3-20.3-33.3-32.6-51.1
	c-12.3-17.8-25.6-35.1-39.7-51.9c-14.2-16.8-28.6-32.6-43.3-47.6c-14.7-14.9-29.1-27.7-43.3-38.1v188.8h-95.2v-594.6l95.2-15.7
	V1429.8z"/>
<path class="st0" d="M6891.5,1612.3c25.2,0,43.5-3,55.1-9c11.5-6,17.3-16.4,17.3-31.1c0-13.6-6.2-24.9-18.5-33.8
	c-12.3-8.9-32.6-18.6-61-29.1c-17.3-6.3-33.2-13-47.6-20.1c-14.4-7.1-26.9-15.3-37.4-24.8c-10.5-9.4-18.7-20.8-24.8-34.2
	c-6-13.4-9-29.8-9-49.2c0-37.8,13.9-67.5,41.7-89.3c27.8-21.8,65.5-32.6,113.3-32.6c24.1,0,47.2,2.2,69.2,6.7
	c22,4.5,38.5,8.8,49.5,13l-17.3,77.1c-10.5-4.7-23.9-9-40.1-13c-16.3-3.9-35.1-5.9-56.6-5.9c-19.4,0-35.1,3.3-47.2,9.8
	c-12.1,6.6-18.1,16.6-18.1,30.3c0,6.8,1.2,12.8,3.5,18.1c2.4,5.2,6.4,10.1,12.2,14.5c5.8,4.5,13.4,8.9,22.8,13.4
	c9.4,4.5,21,9,34.6,13.8c22.5,8.4,41.7,16.6,57.4,24.8c15.7,8.1,28.7,17.3,38.9,27.5c10.2,10.2,17.7,21.9,22.4,35
	c4.7,13.1,7.1,28.8,7.1,47.2c0,39.3-14.5,69.1-43.7,89.3c-29.1,20.2-70.7,30.3-124.7,30.3c-36.2,0-65.3-3-87.3-9
	c-22-6-37.5-10.9-46.4-14.5l16.5-79.4c14.2,5.8,31.1,11.3,50.7,16.5C6843.9,1609.7,6866.3,1612.3,6891.5,1612.3z"/>
<g>
</g>
<g>
</g>
<g>
</g>
<g>
</g>
<g>
</g>
<g>
</g>
</svg>
