<?xml version="1.0" encoding="utf-8"?>
<!-- Generator: Adobe Illustrator 22.1.0, SVG Export Plug-In . SVG Version: 6.00 Build 0)  -->
<svg version="1.1" id="Layer_1" xmlns="http://www.w3.org/2000/svg" xmlns:xlink="http://www.w3.org/1999/xlink" x="0px" y="0px"
	 viewBox="0 0 1008 612" style="enable-background:new 0 0 1008 612;" xml:space="preserve">
<style type="text/css">
	.st0{fill-rule:evenodd;clip-rule:evenodd;fill:#455B66;}
	.st1{fill-rule:evenodd;clip-rule:evenodd;fill:#2173BD;}
</style>
<path class="st0" d="M314.1,253l0,63.7c-0.9-0.4-1.8-1.3-2.4-1.9c-2.3-2.2-3.8-5.4-3.9-9c-0.1-2.8,0-5.7,0-8.6v-43
	c-0.4,0-3,0.8-3.6,1c-2.4,0.8-4.4,1.6-6.7,2.7c-1.1,0.5-2.2,1.2-3.1,1.6c-0.1,8.2,0,16.4,0,24.6l0,18.4c0,2,0,4,0.2,5.9
	c1.6,12.5,12.4,23,26.1,23c13.8,0,24.5-10.5,26.1-23c0.3-2.6,0.2-9.1,0.2-12c0-2,0-4.1,0-6.1l0-12.3c0-6.1,0-12.3,0-18.4
	c-0.3-0.2-1.1-0.6-1.5-0.8c-3.5-1.8-6.2-3-10-4.1c-0.5-0.2-1.4-0.4-1.9-0.5c0,11.5,0,22.9,0,34.4c0,5.7,0.1,11.5,0,17.2
	c-0.1,4-2,7.8-5,10c-0.2,0.2-1,0.8-1.3,0.9c-0.1-10.6,0-21.2,0-31.8v-27.8c0-0.6,0.1-3.6,0-4C323.5,252.5,317.9,252.3,314.1,253z"/>
<path class="st1" d="M268.1,305.1c0,8.4,2,16.7,5.7,23.9c1.9,3.8,4.2,7.2,6.9,10.3c0.9,1.1,1.4,1.6,2.4,2.6c0.4,0.4,0.8,0.8,1.2,1.2
	c0.4,0.4,2,1.8,2.6,2.3c5.5,4.7,12.3,8.2,19.3,10.3c2.7,0.8,5.3,1.3,8.2,1.6c1.9,0.2,3.7,0.4,5.6,0.4h1.3c7.7-0.1,15.2-1.9,22.1-5.2
	c3.9-1.9,8.6-4.9,11.9-7.8l1.9-1.8c0.2-0.2,0.5-0.4,0.6-0.6l-9.2-9.2c-0.2,0.2-0.7,0.6-0.9,0.8c-0.3,0.3-0.6,0.6-0.9,0.8
	c-1.6,1.5-4.1,3.3-6,4.4c-2.9,1.7-6.1,3.1-9.8,4.1c-8.1,2.2-16.5,1.7-24.1-1.1c-1.7-0.6-3.3-1.3-4.8-2.2c-2.3-1.2-5.3-3.2-7.2-4.9
	c-1-0.9-1.6-1.4-2.7-2.5l-1.7-1.8c-2-2.2-4.2-5.8-5.5-8.4c-1.2-2.4-2.1-5-2.8-7.7c-0.2-0.6-0.6-2.3-0.6-2.9l11.3,0
	c-0.1-0.9-0.3-1.7-0.5-3c-0.2-2.1-0.2-4.7-0.2-6.8c0-1.1,0.1-2.5,0-3.5l-10.7,0c0.2-2.4,1.8-7.2,2.8-9.3c1.3-2.8,2.8-5.5,4.4-7.6
	c0.4-0.6,0.8-1.1,1.3-1.7c0.2-0.3,0.5-0.5,0.7-0.8c1.7-2,1.4-0.9,1.4-3.1v-15.2c-0.8,0.2-5.2,3.7-6.1,4.5c-0.4,0.3-0.7,0.7-1.1,1
	c-1.8,1.5-4.8,4.9-6.2,6.7c-1.2,1.6-2.3,3.2-3.5,5.1C271.1,285.5,268,294.8,268.1,305.1L268.1,305.1z M373.4,306.5
	c-0.1,0.3-0.1,2.2-0.2,2.7c-0.1,0.9-0.1,1.7-0.3,2.6l-24.5,0c0-0.4,0.2-1,0.3-1.5c0.3-1.7,0.4-3.1,0.4-4.9c0-1.2-0.1-6.2,0-7h10.7
	c-0.1-0.7-0.3-1.8-0.5-2.6c-1.4-5.9-4.3-11.6-8.1-16.1c-0.2-0.3-0.5-0.6-0.7-0.8c-0.3-0.3-0.5-0.5-0.7-0.8c-0.3-0.3-0.7-0.6-0.7-0.8
	c0-0.4,0-1.1,0-1.5c0-1.5-0.1-14.5,0-15c0.4,0.2,0.9,0.6,1.3,0.8c3,2.1,4.4,3.3,6.9,5.6c1.5,1.4,3.9,4,5,5.5
	c0.6,0.8,1.2,1.6,1.8,2.4c2.8,4,5.4,9.1,6.9,14.1c1.4,4.5,2,7.8,2.3,12.4c0,0.3,0,0.7,0.1,1c0,0.2,0,0.8,0.1,1V306.5z"/>
<rect x="390.8" y="249.4" class="st0" width="1.6" height="113.3"/>
<polygon class="st1" points="412.2,323.8 412.2,287.4 435.6,287.4 435.6,293 418.9,293 418.9,302 433.8,302 433.8,307.5 
	418.9,307.5 418.9,318.2 436.9,318.2 436.9,323.8 "/>
<path class="st1" d="M458.4,302.1c-0.5-0.2-1.3-0.4-2.2-0.6c-0.9-0.2-2-0.3-3.2-0.3c-0.7,0-1.4,0.1-2.2,0.2
	c-0.8,0.1-1.3,0.3-1.7,0.4v22h-6.4v-26.2c1.2-0.5,2.8-0.9,4.6-1.3c1.8-0.4,3.9-0.6,6.1-0.6c0.4,0,0.9,0,1.5,0.1
	c0.6,0.1,1.1,0.1,1.7,0.2c0.6,0.1,1.1,0.2,1.6,0.3c0.5,0.1,0.9,0.2,1.3,0.3L458.4,302.1z"/>
<path class="st1" d="M486.5,323c-1.2,0.3-2.8,0.6-4.8,1c-2,0.3-4.1,0.5-6.5,0.5c-2.2,0-4.1-0.3-5.5-0.9c-1.5-0.6-2.7-1.5-3.6-2.6
	c-0.9-1.1-1.5-2.5-1.9-4c-0.4-1.6-0.6-3.3-0.6-5.1v-15.4h6.4v14.4c0,2.9,0.4,5,1.3,6.3c0.9,1.3,2.4,1.9,4.5,1.9c0.8,0,1.6,0,2.4-0.1
	c0.9-0.1,1.5-0.2,1.9-0.3v-22.2h6.4V323z"/>
<path class="st1" d="M499.6,310c0,2.8,0.7,5,2,6.6c1.3,1.6,3.2,2.4,5.5,2.4c1,0,1.9,0,2.6-0.1c0.7-0.1,1.3-0.2,1.8-0.3v-15.8
	c-0.6-0.4-1.3-0.7-2.2-1.1s-1.9-0.5-3-0.5c-2.3,0-4,0.8-5.1,2.4C500.1,305.2,499.6,307.3,499.6,310L499.6,310z M517.8,323
	c-1.3,0.4-2.8,0.7-4.8,1.1c-1.9,0.3-3.9,0.5-6,0.5c-2.2,0-4.1-0.3-5.8-1c-1.7-0.7-3.2-1.6-4.4-2.9c-1.2-1.2-2.1-2.8-2.8-4.5
	c-0.6-1.8-1-3.8-1-6c0-2.2,0.3-4.1,0.8-5.9c0.5-1.8,1.3-3.3,2.4-4.5c1.1-1.3,2.3-2.2,3.8-2.9c1.5-0.7,3.2-1,5.2-1
	c1.3,0,2.5,0.2,3.5,0.5c1,0.3,1.9,0.7,2.6,1.1v-13.2l6.4-1.1V323z"/>
<path class="st1" d="M532.3,323.8H526v-27.5h6.4V323.8L532.3,323.8z M533,288.3c0,1.2-0.4,2.1-1.2,2.8c-0.8,0.7-1.7,1.1-2.7,1.1
	c-1.1,0-2-0.4-2.8-1.1c-0.8-0.7-1.2-1.6-1.2-2.8c0-1.2,0.4-2.2,1.2-2.9s1.7-1.1,2.8-1.1c1.1,0,2,0.4,2.7,1.1
	C532.6,286.1,533,287.1,533,288.3z"/>
<path class="st1" d="M540.1,289.1l6.4-1.1v8.3h9.8v5.3h-9.8v11.2c0,2.2,0.4,3.8,1.1,4.7c0.7,0.9,1.9,1.4,3.6,1.4
	c1.2,0,2.2-0.1,3.1-0.4c0.9-0.2,1.6-0.5,2.1-0.7l1.1,5c-0.7,0.3-1.7,0.6-2.9,1c-1.2,0.3-2.6,0.5-4.2,0.5c-2,0-3.6-0.3-4.9-0.8
	c-1.3-0.5-2.4-1.3-3.1-2.3c-0.8-1-1.3-2.2-1.6-3.6c-0.3-1.4-0.5-3-0.5-4.9V289.1z"/>
<path class="st1" d="M560.4,310.2c0-2.4,0.4-4.5,1.1-6.4c0.7-1.8,1.7-3.3,2.9-4.5c1.2-1.2,2.6-2.1,4.1-2.7c1.5-0.6,3.1-0.9,4.7-0.9
	c3.8,0,6.7,1.2,8.9,3.5c2.1,2.3,3.2,5.9,3.2,10.5c0,0.4,0,0.7,0,1.2c0,0.4,0,0.8-0.1,1.2H567c0.2,2.2,1,3.9,2.3,5.1
	c1.4,1.2,3.4,1.8,6,1.8c1.5,0,3-0.1,4.2-0.4c1.3-0.3,2.3-0.6,3-0.9l0.8,5.2c-0.4,0.2-0.8,0.4-1.4,0.6c-0.6,0.2-1.3,0.4-2.1,0.5
	c-0.8,0.2-1.6,0.3-2.5,0.4c-0.9,0.1-1.8,0.2-2.8,0.2c-2.4,0-4.5-0.4-6.3-1.1c-1.8-0.7-3.3-1.7-4.4-3c-1.2-1.3-2-2.8-2.6-4.5
	C560.7,314.2,560.4,312.3,560.4,310.2L560.4,310.2z M578.8,307.4c0-0.9-0.1-1.7-0.4-2.5c-0.2-0.8-0.6-1.5-1.1-2.1
	c-0.5-0.6-1.1-1-1.7-1.4c-0.7-0.3-1.5-0.5-2.4-0.5c-1,0-1.8,0.2-2.6,0.6c-0.7,0.4-1.4,0.9-1.9,1.4c-0.5,0.6-0.9,1.3-1.2,2.1
	c-0.3,0.8-0.5,1.6-0.6,2.4H578.8z"/>
<path class="st0" d="M615.6,291.5c0.6,1.9,1.2,3.9,1.8,5.9c0.6,2.1,1.3,4.1,2,6.2c0.7,2.1,1.4,4.1,2.1,6c0.7,2,1.3,3.8,2,5.6
	c0.5-1.9,1-4,1.5-6.2c0.5-2.2,1-4.5,1.5-6.9c0.5-2.4,1-4.8,1.4-7.3c0.5-2.5,0.9-4.9,1.3-7.4h6.8c-1.2,6.6-2.6,12.9-4.1,19
	c-1.5,6.1-3.2,11.9-5,17.4h-6.4c-2.7-7.1-5.3-14.8-7.9-23.2c-1.3,4.2-2.6,8.3-4,12.1c-1.3,3.8-2.7,7.5-4,11.1h-6.3
	c-1.9-5.5-3.6-11.3-5.1-17.4c-1.5-6.1-2.8-12.4-4.1-19h7.1c0.4,2.4,0.9,4.8,1.3,7.3c0.5,2.5,1,4.9,1.5,7.3c0.5,2.4,1,4.7,1.6,7
	c0.5,2.2,1.1,4.3,1.6,6.2c0.7-1.8,1.3-3.7,2-5.7c0.7-2,1.4-4,2-6c0.7-2.1,1.3-4.1,1.9-6.1c0.6-2,1.2-4,1.7-5.9H615.6z"/>
<path class="st0" d="M665.1,310c0,2.2-0.3,4.2-0.9,5.9c-0.6,1.8-1.5,3.3-2.7,4.6c-1.2,1.3-2.6,2.2-4.2,2.9c-1.6,0.7-3.4,1.1-5.4,1.1
	s-3.8-0.4-5.4-1.1c-1.6-0.7-3-1.7-4.2-2.9c-1.2-1.3-2.1-2.8-2.7-4.6c-0.6-1.8-1-3.8-1-5.9c0-2.2,0.3-4.1,1-5.9
	c0.6-1.8,1.6-3.3,2.7-4.5c1.2-1.3,2.6-2.2,4.2-2.9c1.6-0.7,3.4-1,5.3-1c1.9,0,3.7,0.3,5.3,1c1.6,0.7,3,1.7,4.2,2.9
	c1.2,1.3,2.1,2.8,2.7,4.5C664.8,305.9,665.1,307.9,665.1,310L665.1,310z M658.6,310c0-2.7-0.6-4.9-1.8-6.5c-1.2-1.6-2.8-2.4-4.9-2.4
	c-2.1,0-3.7,0.8-4.9,2.4c-1.2,1.6-1.8,3.8-1.8,6.5c0,2.8,0.6,5,1.8,6.6c1.2,1.6,2.8,2.4,4.9,2.4c2.1,0,3.7-0.8,4.9-2.4
	C658,315,658.6,312.8,658.6,310z"/>
<path class="st0" d="M687.4,302.1c-0.5-0.2-1.3-0.4-2.2-0.6c-0.9-0.2-2-0.3-3.2-0.3c-0.7,0-1.4,0.1-2.2,0.2
	c-0.8,0.1-1.3,0.3-1.7,0.4v22h-6.4v-26.2c1.2-0.5,2.8-0.9,4.6-1.3c1.8-0.4,3.9-0.6,6.1-0.6c0.4,0,0.9,0,1.5,0.1
	c0.6,0.1,1.1,0.1,1.7,0.2c0.6,0.1,1.1,0.2,1.6,0.3c0.5,0.1,0.9,0.2,1.3,0.3L687.4,302.1z"/>
<path class="st0" d="M699.2,307c0.8-0.8,1.7-1.7,2.6-2.7c0.9-1,1.8-1.9,2.7-2.9c0.9-1,1.7-1.9,2.5-2.8c0.8-0.9,1.5-1.7,2-2.3h7.5
	c-1.8,2-3.6,4-5.5,6.1c-1.9,2.1-3.9,4.2-5.8,6.2c1.1,0.9,2.1,1.9,3.3,3.2c1.2,1.2,2.3,2.6,3.4,4c1.1,1.4,2.1,2.8,3,4.2
	c0.9,1.4,1.7,2.7,2.4,3.9h-7.4c-0.6-1.1-1.4-2.2-2.2-3.4c-0.8-1.2-1.7-2.3-2.7-3.5c-0.9-1.1-1.9-2.2-2.9-3.2c-1-1-1.9-1.8-2.9-2.5
	v12.6h-6.4v-39.7l6.4-1.1V307z"/>
<path class="st0" d="M728.7,319.2c1.7,0,2.9-0.2,3.7-0.6c0.8-0.4,1.2-1.1,1.2-2.1c0-0.9-0.4-1.7-1.2-2.3c-0.8-0.6-2.2-1.2-4.1-1.9
	c-1.2-0.4-2.2-0.9-3.2-1.3c-1-0.5-1.8-1-2.5-1.7c-0.7-0.6-1.3-1.4-1.7-2.3c-0.4-0.9-0.6-2-0.6-3.3c0-2.5,0.9-4.5,2.8-6
	c1.9-1.5,4.4-2.2,7.6-2.2c1.6,0,3.2,0.1,4.6,0.4c1.5,0.3,2.6,0.6,3.3,0.9l-1.2,5.2c-0.7-0.3-1.6-0.6-2.7-0.9
	c-1.1-0.3-2.3-0.4-3.8-0.4c-1.3,0-2.3,0.2-3.2,0.7c-0.8,0.4-1.2,1.1-1.2,2c0,0.5,0.1,0.9,0.2,1.2c0.2,0.4,0.4,0.7,0.8,1
	c0.4,0.3,0.9,0.6,1.5,0.9c0.6,0.3,1.4,0.6,2.3,0.9c1.5,0.6,2.8,1.1,3.8,1.7c1.1,0.5,1.9,1.2,2.6,1.8c0.7,0.7,1.2,1.5,1.5,2.3
	c0.3,0.9,0.5,1.9,0.5,3.2c0,2.6-1,4.6-2.9,6c-1.9,1.3-4.7,2-8.3,2c-2.4,0-4.4-0.2-5.8-0.6c-1.5-0.4-2.5-0.7-3.1-1l1.1-5.3
	c0.9,0.4,2.1,0.8,3.4,1.1C725.6,319.1,727.1,319.2,728.7,319.2z"/>
</svg>
